<svg width="202" height="40" viewBox="0 0 202 40" fill="none" xmlns="http://www.w3.org/2000/svg">
<path d="M59.904 30V12.144H53.088V7.6H71.648V12.144H64.832V30H59.904ZM76.415 30.32C73.183 30.32 70.527 28.464 70.527 25.072V25.008C70.527 21.264 73.375 19.536 77.439 19.536C79.167 19.536 80.415 19.824 81.631 20.24V19.952C81.631 17.936 80.383 16.816 77.951 16.816C76.095 16.816 74.783 17.168 73.215 17.744L71.999 14.032C73.887 13.2 75.743 12.656 78.655 12.656C81.311 12.656 83.231 13.36 84.447 14.576C85.727 15.856 86.303 17.744 86.303 20.048V30H81.599V28.144C80.415 29.456 78.783 30.32 76.415 30.32ZM77.887 26.96C80.159 26.96 81.695 25.712 81.695 23.952V23.088C80.863 22.704 79.775 22.448 78.591 22.448C76.511 22.448 75.231 23.28 75.231 24.816V24.88C75.231 26.192 76.319 26.96 77.887 26.96ZM96.5045 30.32C94.1045 30.32 91.4165 29.52 89.1445 27.728L91.2245 24.528C93.0805 25.872 95.0325 26.576 96.6325 26.576C98.0405 26.576 98.6805 26.064 98.6805 25.296V25.232C98.6805 24.176 97.0165 23.824 95.1285 23.248C92.7285 22.544 90.0085 21.424 90.0085 18.096V18.032C90.0085 14.544 92.8245 12.592 96.2805 12.592C98.4565 12.592 100.825 13.328 102.681 14.576L100.825 17.936C99.1285 16.944 97.4325 16.336 96.1845 16.336C95.0005 16.336 94.3925 16.848 94.3925 17.52V17.584C94.3925 18.544 96.0245 18.992 97.8805 19.632C100.281 20.432 103.065 21.584 103.065 24.72V24.784C103.065 28.592 100.217 30.32 96.5045 30.32ZM106.551 30V6.64H111.415V19.088L117.111 12.848H122.935L116.407 19.6L123.159 30H117.591L113.111 22.992L111.415 24.784V30H106.551ZM126.001 30V7.6H143.057V12.08H130.929V16.848H141.617V21.328H130.929V30H126.001ZM146.713 30V6.64H151.577V30H146.713ZM164.561 30.384C159.249 30.384 155.313 26.448 155.313 21.52V21.456C155.313 16.528 159.281 12.528 164.625 12.528C169.937 12.528 173.873 16.464 173.873 21.392V21.456C173.873 26.384 169.905 30.384 164.561 30.384ZM164.625 26.192C167.409 26.192 169.073 24.048 169.073 21.52V21.456C169.073 18.928 167.249 16.72 164.561 16.72C161.777 16.72 160.113 18.864 160.113 21.392V21.456C160.113 23.984 161.937 26.192 164.625 26.192ZM180.454 30.128L175.174 12.848H180.102L182.854 23.248L186.086 12.784H190.278L193.542 23.28L196.358 12.848H201.19L195.846 30.128H191.462L188.166 19.6L184.806 30.128H180.454Z" fill="#2563EB"/>
<path fill-rule="evenodd" clip-rule="evenodd" d="M25.5557 11.6853C23.9112 10.5865 21.9778 10 20 10V0C23.9556 0 27.8224 1.17298 31.1114 3.37061C34.4004 5.56823 36.9638 8.69181 38.4776 12.3463C39.9913 16.0008 40.3874 20.0222 39.6157 23.9018C38.844 27.7814 36.9392 31.3451 34.1421 34.1421C31.3451 36.9392 27.7814 38.844 23.9018 39.6157C20.0222 40.3874 16.0008 39.9913 12.3463 38.4776C8.6918 36.9638 5.56823 34.4004 3.37061 31.1114C1.17298 27.8224 0 23.9556 0 20H10C10 21.9778 10.5865 23.9112 11.6853 25.5557C12.7841 27.2002 14.3459 28.4819 16.1732 29.2388C18.0004 29.9957 20.0111 30.1937 21.9509 29.8078C23.8907 29.422 25.6725 28.4696 27.0711 27.0711C28.4696 25.6725 29.422 23.8907 29.8078 21.9509C30.1937 20.0111 29.9957 18.0004 29.2388 16.1732C28.4819 14.3459 27.2002 12.7841 25.5557 11.6853Z" fill="#2563EB"/>
<path fill-rule="evenodd" clip-rule="evenodd" d="M9.99999 5.28493e-06C9.99999 1.31322 9.74134 2.61358 9.23879 3.82684C8.73624 5.04009 7.99965 6.14248 7.07106 7.07107C6.14248 7.99966 5.04009 8.73625 3.82683 9.2388C2.61357 9.74134 1.31321 10 4.3711e-07 10L0 20C2.62643 20 5.22715 19.4827 7.65367 18.4776C10.0802 17.4725 12.285 15.9993 14.1421 14.1421C15.9993 12.285 17.4725 10.0802 18.4776 7.65367C19.4827 5.22715 20 2.62643 20 0L9.99999 5.28493e-06Z" fill="#2563EB"/>
</svg>
